<?xml version="1.0" encoding="utf-8"?>
<!-- Generator: Adobe Illustrator 21.0.0, SVG Export Plug-In . SVG Version: 6.00 Build 0)  -->
<svg version="1.1" id="Layer_1" xmlns="http://www.w3.org/2000/svg" xmlns:xlink="http://www.w3.org/1999/xlink" x="0px" y="0px"
	 viewBox="0 0 49.8 49.3" style="enable-background:new 0 0 49.8 49.3;" xml:space="preserve">
<style type="text/css">
	.index-icon{fill:#bbb;}
</style>
<g>
	<path class="index-icon" d="M5.7,48.7L4.4,30.8c-0.2-2.2-0.7-4.4-1.5-6.4l-1-2.6c-0.6-1.6-0.9-3.3-0.9-5c0-4,1.7-7.8,4.9-10.5l5.7-4.8
		l8.7,14.9c1.3,2.2,2.3,4.6,3.1,7l1.7,5.8c0.7,2.4,2.5,4.4,4.9,5.5l6.8,2.9c0.8,0.3,1.5,0.7,2.1,1.2l8.7,6.5
		c0.8,0.6,1.2,1.5,1.2,2.4c0,0.3,0,0.6-0.2,0.9l0.5,0.2v-0.5H26.6c-1.7,0-3.2-0.6-4.5-1.7l-1.4-1.2c-1.3-1.1-2.1-2.5-2.5-4.2
		l-0.6-2.8c-0.2-1.1-0.6-2.1-1.2-3.1l-2.9-5.3l-0.9,0.5l2.9,5.3c0.5,0.9,0.8,1.8,1.1,2.8l0.6,2.8c0.4,1.8,1.4,3.5,2.8,4.7l1.4,1.2
		c1.4,1.2,3.3,1.9,5.1,1.9h22.9l0.1-0.3c0.1-0.4,0.2-0.8,0.2-1.3c0-1.2-0.6-2.4-1.6-3.2L39.5,38c-0.7-0.5-1.5-1-2.3-1.3l-6.8-2.9
		c-2.1-0.9-3.7-2.7-4.3-4.8l-1.7-5.8c-0.8-2.5-1.8-5-3.2-7.2L11.9,0L5.2,5.6C1.9,8.4,0,12.6,0,16.9c0,1.8,0.3,3.6,1,5.3l1,2.6
		c0.8,2,1.2,4,1.4,6.1l1.3,17.9L5.7,48.7L5.7,48.7z"/>
</g>
</svg>
