<?xml version="1.0" encoding="utf-8"?>
<!-- Generator: Adobe Illustrator 21.0.0, SVG Export Plug-In . SVG Version: 6.00 Build 0)  -->
<svg version="1.1" id="Layer_1" xmlns="http://www.w3.org/2000/svg" xmlns:xlink="http://www.w3.org/1999/xlink" x="0px" y="0px"
	 viewBox="0 0 46.5 55.1" style="enable-background:new 0 0 46.5 55.1;" xml:space="preserve">
<style type="text/css">
	.index-icon{fill:#bbb;}
</style>
<g>
	<path class="index-icon" d="M43,9.4c-0.2-0.2-0.5-0.2-0.7-0.1c-0.2,0.2-0.2,0.5-0.1,0.7c2,2.5,3.3,5.7,3.3,9.1c0,7.4-5.6,13.5-12.9,14.3
		c2.7-5,4.3-10.8,5.4-16c1.6-8.1,1.7-15.1,1.7-16.7c0-0.2,0-0.3,0-0.3c0-0.3-0.2-0.5-0.5-0.5h-16h-16C7,0,6.8,0.2,6.8,0.5
		c0,0,0,0.1,0,0.3c0,1.5,0.1,8.5,1.7,16.7c1,5.2,2.7,10.9,5.4,16C6.6,32.7,1,26.6,1,19.2c0-3.5,1.2-6.6,3.3-9.1
		c0.2-0.2,0.1-0.5-0.1-0.7C4,9.2,3.7,9.2,3.5,9.4C1.3,12.1,0,15.5,0,19.2C0,27.4,6.4,34,14.4,34.5c1.4,2.4,3,4.6,4.9,6.6l0,0
		c0,0,0,0,0,0c0,0,0,0,0,0l0,0c1,1,2.3,1.7,3.9,1.7c1.5,0,2.9-0.7,3.9-1.7l0,0c0,0,0,0,0,0c0,0,0,0,0,0l0,0c1.9-1.9,3.5-4.2,4.9-6.6
		c8.1-0.5,14.4-7.2,14.4-15.4C46.5,15.5,45.2,12.1,43,9.4z M26.4,40.4c-0.8,0.9-1.9,1.4-3.1,1.4c-1.2,0-2.4-0.5-3.1-1.4l0,0
		c-5.9-5.9-9-15.1-10.6-23.1C7.9,9.5,7.8,2.8,7.8,1h15.5h15.5c0,1.8-0.1,8.5-1.7,16.3C35.4,25.3,32.3,34.5,26.4,40.4L26.4,40.4z"/>
	<path class="index-icon" d="M30.2,49c0.3,0,0.5-0.2,0.5-0.5c0-0.3-0.2-0.5-0.5-0.5H16.3c-0.3,0-0.5,0.2-0.5,0.5c0,0.3,0.2,0.5,0.5,0.5
		H30.2z"/>
	<path class="index-icon" d="M35.4,54.1H11.1c-0.3,0-0.5,0.2-0.5,0.5c0,0.3,0.2,0.5,0.5,0.5h24.3c0.3,0,0.5-0.2,0.5-0.5
		C35.9,54.3,35.6,54.1,35.4,54.1z"/>
</g>
</svg>
