<?xml version="1.0" encoding="utf-8"?>
<!-- Generator: Adobe Illustrator 21.0.0, SVG Export Plug-In . SVG Version: 6.00 Build 0)  -->
<svg version="1.1" id="Layer_1" xmlns="http://www.w3.org/2000/svg" xmlns:xlink="http://www.w3.org/1999/xlink" x="0px" y="0px"
	 viewBox="0 0 50.3 43.7" style="enable-background:new 0 0 50.3 43.7;" xml:space="preserve">
<style type="text/css">
	.index-icon{fill:#bbb;}
</style>
<g>
	<path class="index-icon" d="M18,26.3c0.1,0.1,0.3,0.2,0.4,0.2c0.2,0,0.3-0.1,0.4-0.2l6.3-10.2l6.3,10.2c0.1,0.1,0.3,0.2,0.4,0.2
		c0.2,0,0.3-0.1,0.4-0.2L39,15.7l4.2,0c0.3,0,0.5-0.2,0.5-0.5c0-0.3-0.2-0.5-0.5-0.5h-4.5h0c-0.2,0-0.3,0.1-0.4,0.2l-6.3,10.2
		l-6.3-10.2c-0.1-0.1-0.3-0.2-0.4-0.2c-0.2,0-0.3,0.1-0.4,0.2l-6.3,10.2l-6.3-10.2c-0.1-0.1-0.3-0.2-0.4-0.2c-0.2,0-0.3,0.1-0.4,0.2
		L4.7,25.6l-4.2,0c-0.3,0-0.5,0.2-0.5,0.5c0,0.3,0.2,0.5,0.5,0.5l4.5,0c0.2,0,0.3-0.1,0.4-0.2l6.3-10.2L18,26.3z"/>
	<path class="index-icon" d="M50.3,13.3C50.3,6,44.4,0,37,0c-3.8,0-7.3,1.6-9.7,4.2l0,0l-2.1,2.2l-2.1-2.2l0,0C20.6,1.6,17.2,0,13.4,0
		C6,0,0.1,6,0.1,13.3c0,3.3,1.2,6.4,3.3,8.7c0.2,0.2,0.5,0.2,0.7,0c0.2-0.2,0.2-0.5,0-0.7l0,0c-1.9-2.2-3-5-3-8.1
		c0-3.4,1.4-6.5,3.6-8.7C6.9,2.4,10,1,13.4,1c3.5,0,6.7,1.5,9,3.9l0,0l2.5,2.6c0.1,0.1,0.2,0.2,0.4,0.2c0.1,0,0.3-0.1,0.4-0.2
		l2.5-2.6l0,0C30.3,2.5,33.5,1,37,1c3.4,0,6.5,1.4,8.7,3.6c2.2,2.2,3.6,5.3,3.6,8.7c0,3.5-1.4,6.6-3.8,8.9c0,0,0,0,0,0L25.2,42.5
		L9.4,26.7c-0.2-0.2-0.5-0.2-0.7,0c-0.2,0.2-0.2,0.5,0,0.7l16.1,16.1c0.2,0.2,0.5,0.2,0.7,0l20.7-20.7c0,0,0,0,0,0
		C48.8,20.4,50.3,17,50.3,13.3z"/>
</g>
</svg>
